<svg id="Layer_1" data-name="Layer 1" xmlns="http://www.w3.org/2000/svg" viewBox="0 0 52.49 52.49"><defs><style>.cls-1{fill:#ef4136;}.cls-2{fill:#282828;}.cls-3{fill:#39b54a;}</style></defs><path class="cls-1" d="M245.58,86.28a1.39,1.39,0,0,0-.4.06,1.2,1.2,0,0,0-.72,1.52,1.18,1.18,0,0,0,1.12.79,1.09,1.09,0,0,0,.4-.07,1.18,1.18,0,0,0-.4-2.3Z" transform="translate(-223.76 -62.13)"/><path class="cls-1" d="M257.5,89.44a1.2,1.2,0,0,0-1.12-.79,1.34,1.34,0,0,0-.4.07,1.19,1.19,0,0,0,.4,2.31,1.12,1.12,0,0,0,.4-.07,1.21,1.21,0,0,0,.67-.61A1.2,1.2,0,0,0,257.5,89.44Z" transform="translate(-223.76 -62.13)"/><path class="cls-1" d="M263.88,77.91a1.34,1.34,0,0,0-.4.07,1.19,1.19,0,0,0,.4,2.31,1.07,1.07,0,0,0,.39-.07,1.17,1.17,0,0,0,.68-.61,1.19,1.19,0,0,0,0-.91A1.18,1.18,0,0,0,263.88,77.91Z" transform="translate(-223.76 -62.13)"/><path class="cls-1" d="M236.12,96.45a1.07,1.07,0,0,0-.39.07,1.19,1.19,0,0,0,.39,2.31,1.34,1.34,0,0,0,.4-.07,1.19,1.19,0,0,0-.4-2.31Z" transform="translate(-223.76 -62.13)"/><path class="cls-2" d="M256.38,88.36a1.42,1.42,0,0,0-.5.08,1.49,1.49,0,0,0,.5,2.89,1.47,1.47,0,0,0,.5-.09,1.48,1.48,0,0,0-.5-2.88Z" transform="translate(-223.76 -62.13)"/><path class="cls-3" d="M235,94.56a3.21,3.21,0,0,1,2.42.1l5.34-5.51a2.94,2.94,0,0,1-.29-.59,3.27,3.27,0,0,1,2-4.17,3.13,3.13,0,0,1,1.09-.19,3.27,3.27,0,0,1,3.08,2.17,3.61,3.61,0,0,1,.18.84l4.49,1.46a1.6,1.6,0,0,1,.1-.23,3.25,3.25,0,0,1,1.85-1.68,3.44,3.44,0,0,1,1.1-.19,3.4,3.4,0,0,1,1.3.27l3.94-5.38a3.17,3.17,0,0,1-.82-1.26,3.27,3.27,0,0,1,2-4.18,3.73,3.73,0,0,1,.93-.18L250,62.13,223.76,88.37l9.1,9.1A3.28,3.28,0,0,1,235,94.56Z" transform="translate(-223.76 -62.13)"/><path class="cls-2" d="M265.22,79.74a1.46,1.46,0,0,0,0-1.14,1.48,1.48,0,0,0-1.39-1,1.69,1.69,0,0,0-.5.08,1.49,1.49,0,0,0,.5,2.89,1.41,1.41,0,0,0,.49-.09A1.45,1.45,0,0,0,265.22,79.74Z" transform="translate(-223.76 -62.13)"/><path class="cls-2" d="M237.52,97.14a1.49,1.49,0,0,0-1.4-1,1.41,1.41,0,0,0-.49.09,1.48,1.48,0,0,0,.49,2.88,1.69,1.69,0,0,0,.5-.08A1.49,1.49,0,0,0,237.52,97.14Z" transform="translate(-223.76 -62.13)"/><path class="cls-2" d="M267.14,79.27a3.43,3.43,0,0,1-.31,1.24A3.29,3.29,0,0,1,265,82.18a3.13,3.13,0,0,1-1.09.19,3.57,3.57,0,0,1-.74-.08L259,87.92a3.47,3.47,0,0,1,.44.83,3.27,3.27,0,0,1-2,4.17,3.13,3.13,0,0,1-1.09.19,3.27,3.27,0,0,1-3.08-2.17,3,3,0,0,1-.13-.52l-4.66-1.51A3.26,3.26,0,0,1,244,90.34l-5.25,5.41a3.12,3.12,0,0,1,.41.79,3.27,3.27,0,0,1-2,4.18,3.73,3.73,0,0,1-.93.18L250,114.61l26.24-26.24Z" transform="translate(-223.76 -62.13)"/><path class="cls-2" d="M246.08,88.86a1.48,1.48,0,0,0-.5-2.88,1.74,1.74,0,0,0-.5.08,1.49,1.49,0,0,0,.5,2.89A1.43,1.43,0,0,0,246.08,88.86Z" transform="translate(-223.76 -62.13)"/></svg>